<?xml version="1.0" encoding="UTF-8"?>
<svg id="Capa_2" data-name="Capa 2" xmlns="http://www.w3.org/2000/svg" xmlns:xlink="http://www.w3.org/1999/xlink" viewBox="0 0 1544.59 524.76">
  <defs>
    <style>
      .cls-1 {
        fill: #6f0061;
      }

      .cls-2 {
        fill: none;
      }

      .cls-3 {
        clip-path: url(#clippath);
      }
    </style>
    <clipPath id="clippath">
      <rect class="cls-2" y=".28" width="1544.59" height="524"/>
    </clipPath>
  </defs>
  <g id="Capa_1-2" data-name="Capa 1">
    <g class="cls-3">
      <path class="cls-1" d="M561.34.28c-103.19-5.26-103.52,64.28-100.34,144.94,0,0,0,159.8,0,159.8,0,34.84-28.34,63.18-63.18,63.18-36.08,1.89-67.01-26.9-66.89-63.18,0,0,0-163.52,0-163.52h-48.31c4.57,95.06-34.55,271.9,111.49,275,62.84,2.01,115.32-48.53,115.2-111.49.94-46.4-.68-182.32,0-226.69-.39-28.27,30.18-32.02,52.03-29.73,16.39,0,29.73,13.33,29.73,29.73,0,0,0,66.89,0,66.89,0,0,0,234.13,0,234.13-3.44,80.06-2.32,150.68,100.34,144.94,80.66-4.35,81.12-74.96,78.04-137.5,0,0,0-7.43,0-7.43v-144.94c1.16-83.55,128.9-83.61,130.07,0,0,0,0,144.93,0,144.93,0,0,0,7.43,0,7.43-3.19,62.29-2.43,133.4,78.05,137.5,78.95,5.85,106.97-42.04,100.33-115.21-.27-17.31.2-153.84,0-174.67,0-34.84,28.34-63.18,63.18-63.18,36.07-1.89,67.02,26.9,66.89,63.18,0,0,0,174.67,0,174.67h48.31c-5.86-95.66,37.94-283.44-111.49-286.15-62.84-2-115.32,48.53-115.2,111.49-.59,46.99.42,166.6,0,211.83.39,28.27-30.18,32.02-52.03,29.73-16.39,0-29.73-13.33-29.73-29.73.24-43.6-.17-166.45,0-211.83.12-62.95-52.37-113.49-115.21-111.49-140.61,4.61-108.86,161.91-111.49,256.43-.38,3.51.27,61.97,0,66.89.39,28.27-30.19,32.02-52.04,29.73-16.39,0-29.72-13.34-29.72-29.73,0,0,0-66.89,0-66.89v-234.13c2.23-63.34,6.48-140.61-78.04-144.94"/>
      <path d="M75.8,286.52l-29.21,30.47v95.7H0V25.87h46.59v233.96c15.2-21.13,90.65-99.27,109.8-119.62h56.66l-106.02,113.83,118.36,158.66h-54.65l-94.94-126.17Z"/>
      <path d="M1500.44,410.84l-3.86-33.67h-1.66c-151.13,146.45-274.7-145.02-2.76-136.34,7.77-72.43-72.43-83.59-130.27-47.47l-11.04-32.01c85.4-51.72,197.63-19.72,189.32,85.56.72,40.28-2.73,126.67,4.42,163.94h-44.16ZM1493.26,274.5c-135.78-11.19-140.18,102.08-67.35,106.54,34.78,0,56.86-22.08,64.58-44.71,4.98-10.56,1.99-50.2,2.76-61.82Z"/>
    </g>
  </g>
</svg>